# xmcd CD database file
#
# Track frame offsets:
#	150
#	13120
#	29495
#	40242
#	56902
#	71385
#	82687
#	97400
#	110557
#	123557
#
# Disc length: 1844 seconds
#
# Revision: 0
# Processed by: cddbd v1.5PL3 Copyright (c) Steve Scherf et al.
# Submitted via: CDex 1.51
#
DISCID=8807320a
DTITLE=Don Williams - Don Williams
DYEAR=1900
DGENRE=Country
TTITLE0=True Love
TTITLE1=Cryin' Eyes
TTITLE2=We're All The Way
TTITLE3=Come A Little Closer
TTITLE4=Why Get Up
TTITLE5=Catfish Bates
TTITLE6=Diamonds To Dust
TTITLE7=Too Much Love
TTITLE8=Jamaica Farewell
TTITLE9=It's Who You Love
EXTD=
EXTT0=
EXTT1=
EXTT2=
EXTT3=
EXTT4=
EXTT5=
EXTT6=
EXTT7=
EXTT8=
EXTT9=
PLAYORDER=
